<?xml version="1.0" standalone="no"?>
<!DOCTYPE svg PUBLIC "-//W3C//DTD SVG 20010904//EN"
 "http://www.w3.org/TR/2001/REC-SVG-20010904/DTD/svg10.dtd">
<svg version="1.0" xmlns="http://www.w3.org/2000/svg"
 width="855.000000pt" height="855.000000pt" viewBox="0 0 855.000000 855.000000"
 preserveAspectRatio="xMidYMid meet">
<metadata>
Created by potrace 1.10, written by Peter Selinger 2001-2011
</metadata>
<g transform="translate(0.000000,855.000000) scale(0.100000,-0.100000)"
fill="#000000" stroke="none">
<path d="M8034 8419 c-8 -14 11 -33 25 -25 6 4 11 11 11 16 0 13 -29 20 -36 9z"/>
<path d="M6035 8205 c-18 -15 -235 -458 -235 -479 0 -3 -21 -47 -46 -98 -25
-51 -57 -119 -70 -152 -14 -32 -36 -75 -48 -95 -13 -20 -29 -54 -36 -76 -7
-22 -30 -74 -51 -115 -50 -98 -159 -327 -159 -334 0 -26 -127 -258 -157 -289
-165 -166 -590 -396 -661 -358 -18 10 -20 20 -20 98 1 101 -10 135 -49 160
-25 17 -71 18 -698 21 -498 2 -681 0 -713 -9 -84 -23 -77 89 -79 -1279 -2
-954 0 -1220 10 -1239 6 -13 25 -34 40 -45 28 -21 37 -21 670 -24 353 -2 667
0 696 3 44 6 62 14 88 40 32 32 33 34 33 124 0 76 3 92 18 99 9 5 166 9 347 8
l330 -1 46 -35 c26 -19 77 -55 113 -80 37 -25 84 -58 106 -75 22 -16 63 -48
92 -70 29 -22 63 -46 76 -52 19 -10 203 -13 823 -13 l798 0 89 88 c169 165
372 357 382 360 6 2 19 21 30 43 20 37 20 63 20 1070 0 996 -1 1032 -19 1055
-10 13 -101 66 -202 116 l-184 93 -358 5 c-327 5 -360 7 -371 23 -20 27 -28
171 -21 391 6 185 19 303 65 566 5 30 14 160 20 289 11 227 10 235 -9 254 -18
19 -36 20 -357 21 -212 1 -342 -3 -349 -9z m523 -199 c8 -8 15 -27 15 -43 1
-31 -72 -523 -78 -534 -3 -3 -5 -208 -6 -454 -1 -404 0 -448 15 -463 15 -15
65 -18 459 -22 l442 -5 40 -25 c67 -42 139 -88 163 -105 l23 -17 -2 -951 c-1
-799 -4 -958 -16 -988 -9 -23 -38 -56 -78 -88 -35 -29 -84 -71 -108 -94 -24
-23 -81 -73 -128 -112 l-84 -70 -715 0 -716 0 -32 25 c-18 14 -47 37 -65 51
-18 15 -51 39 -73 55 -23 16 -88 64 -144 107 -57 43 -114 83 -127 88 -13 5
-190 9 -393 9 l-370 0 -14 23 c-12 18 -14 145 -15 792 -1 854 -4 807 66 818
121 20 227 49 289 79 38 20 81 38 96 42 14 3 39 16 55 29 15 13 51 36 78 52
28 15 69 44 92 64 23 20 69 59 102 86 52 44 67 65 119 170 101 202 218 448
232 485 7 19 19 42 25 50 7 8 29 53 50 100 20 47 47 104 61 127 13 23 24 48
24 56 0 7 14 43 31 78 100 209 120 253 159 344 24 55 49 109 55 120 7 11 18
36 24 56 24 75 73 90 285 84 114 -3 153 -8 164 -19z m-3268 -1766 c0 -5 -9
-10 -20 -10 -11 0 -20 5 -20 10 0 6 9 10 20 10 11 0 20 -4 20 -10z"/>
<path d="M701 6501 c-11 -7 -15 -43 -17 -153 -2 -78 -1 -151 2 -160 5 -16 20
-18 124 -18 110 0 120 -2 130 -20 15 -28 10 -1823 -5 -1854 -10 -19 -20 -21
-120 -24 -60 -1 -114 -7 -121 -13 -9 -7 -13 -54 -13 -158 -1 -126 1 -150 15
-162 14 -11 99 -14 448 -15 255 -1 438 2 449 8 16 8 17 24 15 171 l-3 162
-112 5 c-61 3 -114 8 -118 12 -4 4 -8 423 -10 933 -2 806 0 928 13 941 11 12
38 15 117 13 57 -1 108 2 114 5 12 8 16 291 5 320 -5 14 -55 16 -453 16 -245
0 -452 -4 -460 -9z"/>
<path d="M3745 3140 c-86 -14 -238 -56 -282 -79 -10 -4 -38 -19 -63 -31 -138
-69 -283 -200 -385 -349 -69 -100 -145 -250 -145 -286 0 -9 -7 -32 -16 -53 -8
-20 -20 -59 -25 -87 -6 -27 -14 -72 -20 -100 -43 -227 -36 -591 15 -755 8 -25
26 -85 42 -135 15 -49 32 -99 39 -110 7 -11 16 -32 19 -48 7 -29 54 -112 93
-162 63 -82 84 -105 155 -176 43 -42 99 -89 125 -104 26 -16 51 -34 56 -41 4
-7 24 -18 45 -24 20 -7 62 -24 92 -38 54 -25 179 -61 212 -62 9 0 29 -5 45
-12 34 -13 310 -13 434 1 91 10 226 51 329 99 36 16 70 31 77 33 45 14 285
243 314 301 11 21 23 38 27 38 5 0 19 21 33 47 13 25 30 58 38 72 41 74 106
266 128 381 40 208 39 518 -1 724 -34 174 -113 369 -202 499 -68 101 -251 270
-336 313 -158 80 -211 100 -333 130 -79 19 -423 29 -510 14z m374 -376 c205
-52 346 -172 445 -379 26 -55 51 -108 56 -117 21 -37 43 -171 54 -313 17 -233
-2 -444 -54 -594 -43 -123 -51 -143 -75 -181 -14 -22 -25 -43 -25 -48 0 -5
-20 -29 -45 -53 -24 -24 -59 -59 -77 -77 -47 -47 -133 -96 -219 -123 -105 -34
-301 -34 -404 -1 -168 55 -295 163 -387 332 -32 58 -58 115 -58 128 0 13 -5
33 -12 45 -12 23 -34 110 -48 192 -11 64 -11 414 0 480 4 28 15 77 25 110 9
33 21 78 27 100 12 54 106 245 123 251 7 3 18 18 24 33 14 32 94 98 188 154
119 70 318 97 462 61z"/>
<path d="M697 3098 c-17 -11 -23 -314 -7 -333 9 -11 36 -15 104 -15 50 0 96
-4 101 -8 15 -10 45 -58 81 -127 17 -33 35 -69 41 -80 17 -30 97 -191 108
-216 6 -13 29 -59 52 -103 24 -45 86 -166 138 -271 52 -104 98 -197 103 -205
5 -8 24 -45 42 -82 l33 -67 2 -343 c0 -196 -3 -348 -8 -356 -7 -8 -44 -12
-123 -12 -79 0 -115 -4 -121 -13 -10 -15 -4 -319 6 -330 12 -12 893 -9 906 4
11 11 13 293 2 322 -5 15 -21 17 -110 17 -78 0 -108 4 -116 14 -9 11 -11 108
-9 373 l3 358 25 47 c14 26 82 159 151 295 181 357 289 566 299 578 4 5 24 48
44 95 21 47 43 91 50 98 9 9 46 14 117 15 l104 2 0 165 0 165 -25 11 c-17 7
-99 9 -255 5 l-230 -6 -20 -40 c-10 -22 -36 -70 -57 -107 -21 -36 -38 -71 -38
-76 0 -6 -25 -63 -56 -128 -31 -66 -72 -153 -91 -194 -65 -141 -96 -205 -104
-220 -9 -16 -56 -113 -95 -197 -14 -30 -31 -53 -40 -53 -9 0 -26 24 -40 58
-39 87 -57 123 -81 164 -13 21 -32 60 -42 89 -11 28 -26 59 -33 68 -8 9 -25
43 -38 76 -13 33 -32 72 -42 87 -10 15 -25 44 -32 65 -8 21 -28 65 -44 98 -38
78 -94 199 -117 253 -10 23 -23 46 -29 51 -13 11 -493 19 -509 9z"/>
<path d="M6945 3100 l-60 -5 -3 -167 c-1 -93 -1 -169 0 -169 2 -1 59 -5 128
-8 l125 -6 0 -705 c0 -656 -1 -710 -19 -780 -21 -86 -63 -172 -112 -229 -112
-130 -350 -203 -563 -172 -140 21 -232 63 -324 150 -52 49 -115 159 -127 221
-5 28 -14 59 -20 70 -7 12 -9 258 -8 732 l3 713 114 3 c63 1 121 7 128 13 15
13 16 307 1 327 -8 9 -111 12 -454 12 -428 0 -444 -1 -454 -19 -15 -28 -13
-304 2 -319 8 -8 49 -12 120 -12 80 0 108 -3 108 -12 1 -7 2 -337 3 -733 2
-650 4 -725 20 -775 9 -30 24 -82 33 -115 20 -76 108 -247 149 -291 5 -6 29
-32 53 -58 69 -75 171 -141 333 -215 25 -12 52 -21 60 -21 8 0 43 -8 79 -19
36 -11 103 -23 150 -28 114 -12 369 1 450 22 156 40 347 151 454 263 42 44
116 145 116 157 0 4 11 21 23 38 29 40 50 96 78 212 22 88 22 106 24 825 2
404 3 738 4 743 0 4 55 7 120 7 83 0 122 4 127 12 13 21 5 311 -9 325 -9 9
-111 13 -402 15 -215 2 -417 1 -450 -2z"/>
<path d="M8455 2710 c-4 -6 6 -10 22 -10 22 0 25 2 13 10 -19 12 -27 12 -35 0z"/>
<path d="M8237 2564 c-9 -10 2 -24 19 -24 8 0 14 7 14 15 0 15 -21 21 -33 9z"/>
<path d="M637 1543 c-11 -11 -8 -20 9 -27 17 -7 54 10 54 24 0 11 -53 14 -63
3z"/>
</g>
</svg>
