<?xml version="1.0" encoding="UTF-8" standalone="no"?>
<svg width="32px" height="32px" viewBox="0 0 32 32" version="1.1" xmlns="http://www.w3.org/2000/svg" xmlns:xlink="http://www.w3.org/1999/xlink">
    <!-- Generator: Sketch 3.8.3 (29802) - http://www.bohemiancoding.com/sketch -->
    <title>omnibox_https_valid_incognito</title>
    <desc>Created with Sketch.</desc>
    <defs></defs>
    <g id="Page" stroke="none" stroke-width="1" fill="none" fill-rule="evenodd">
        <g id="Non-Touch-Summary-Icons" transform="translate(-319.000000, -201.000000)" fill="#0B8043">
            <g id="omnibox_https_valid_incognito" transform="translate(327.000000, 206.000000)">
                <path d="M13,6.99999983 L13,4.99999983 C13,2.23999023 10.7600098,7.38964445e-13 8,0 C5.23999023,0.0203441429 3,2.23999023 3,4.99999983 L3,6.99999983 C3,6.99999983 3.1000061,7 2,6.99999983 C0.899993896,6.99999966 0,7.90030661 0,8.99267561 L0,19 C0,20.1000061 0.900024414,21 2,21 C3.09997559,21 12.9000244,21 14,21 C15.0999756,21 16,20.1000061 16,19 C16,17.8999939 16,10.1000061 16,9 C16,7.94454214 15.1000061,7 14,6.99999983 C12.8999939,7 13,6.99999983 13,6.99999983 Z M5,7.02022822 L5,5 C5,3.33999634 6.33999634,2 8,2 C9.66000366,2 11,3.33999634 11,5 L11,7.02022822 L5,7.02022822 Z" id="Shape"></path>
            </g>
        </g>
    </g>
</svg>