<?xml version="1.0" encoding="UTF-8" standalone="no"?>
<svg width="32px" height="32px" viewBox="0 0 32 32" version="1.1" xmlns="http://www.w3.org/2000/svg" xmlns:xlink="http://www.w3.org/1999/xlink">
    <!-- Generator: Sketch 3.8.3 (29802) - http://www.bohemiancoding.com/sketch -->
    <title>omnibox_http</title>
    <desc>Created with Sketch.</desc>
    <defs></defs>
    <g id="Page" stroke="none" stroke-width="1" fill="none" fill-rule="evenodd">
        <g id="Non-Touch-Summary-Icons" transform="translate(-235.000000, -201.000000)" fill="#5A5A5A">
            <g id="omnibox_http" transform="translate(238.000000, 204.000000)">
                <path d="M13.5,0 C6.048,0 0,6.048 0,13.5 C0,20.952 6.048,27 13.5,27 C20.952,27 27,20.952 27,13.5 C27,6.048 20.952,0 13.5,0 L13.5,0 Z M3,13.5 C3,7.711875 7.711875,3 13.5,3 C19.288125,3 24,7.711875 24,13.5 C24,19.288125 19.288125,24 13.5,24 C7.711875,24 3,19.288125 3,13.5 Z M12,20 L15,20 L15,12 L12,12 L12,20 L12,20 Z M12,10 L15,10 L15,7 L12,7 L12,10 L12,10 Z" id="Icon"></path>
            </g>
        </g>
    </g>
</svg>